<svg width="320" height="321" viewBox="0 0 320 321" fill="none" xmlns="http://www.w3.org/2000/svg">
<circle cx="159.997" cy="160.692" r="159.997" fill="#89CAFF"/>
<path d="M115.397 264.175L115.55 264.256C120.389 266.373 127.31 264.197 132.168 260.182C138.676 254.745 146.064 250.438 153.911 247.259C160.281 244.391 167.393 242.126 175.012 240.676C182.661 239.218 190.11 238.711 197.125 239.059C205.557 239.137 213.977 240.433 221.991 243.077C227.984 245.031 235.219 244.507 238.942 240.763L239.09 240.623C242.793 236.964 240.37 230.467 232.756 227.166C216.019 219.931 196.722 217.458 177.458 219.458C175.371 219.754 173.273 220.084 171.155 220.488C169.032 220.892 166.953 221.356 164.897 221.848C146.251 227.069 129.216 236.46 116.343 249.332C110.441 255.207 110.572 262.139 115.397 264.175Z" fill="#21214D"/>
</svg>
