<svg width="320" height="321" viewBox="0 0 320 321" fill="none" xmlns="http://www.w3.org/2000/svg">
<circle cx="159.997" cy="160.689" r="159.997" fill="#B8B1FF"/>
<path d="M159.999 264.587H191.571C201.521 264.587 206.193 255.61 198.752 250.788L198.101 250.365C176.366 236.282 143.634 236.282 121.899 250.365L121.246 250.788C113.805 255.61 118.48 264.587 128.43 264.587H159.999Z" fill="#21214D"/>
<path opacity="0.3" d="M92.2289 96.5449C102.828 88.9734 111.298 84.2708 117.481 88.1665C123.664 92.0621 123.778 105.413 114.679 110.26C105.58 115.108 79.6433 130.398 43.436 120.862C37.8847 119.788 45.2502 106.676 60.4126 106.944C75.5751 107.213 88.4501 99.1744 92.2289 96.5449Z" fill="#21214D"/>
<path opacity="0.3" d="M227.773 96.5449C217.174 88.9734 208.704 84.2708 202.521 88.1665C196.338 92.0621 196.224 105.413 205.323 110.26C214.423 115.108 240.359 130.398 276.566 120.862C282.118 119.788 274.752 106.676 259.59 106.944C244.427 107.213 231.552 99.1744 227.773 96.5449Z" fill="#21214D"/>
</svg>
