<svg width="320" height="321" viewBox="0 0 320 321" fill="none" xmlns="http://www.w3.org/2000/svg">
<circle cx="159.997" cy="160.692" r="159.997" fill="#89E780"/>
<path d="M229.298 219.843L229.146 219.692C224.348 215.538 216.418 216.707 210.338 220.939C202.179 226.68 193.303 230.645 184.162 232.949C176.682 235.217 168.524 236.463 159.987 236.463C151.413 236.463 143.255 235.217 135.739 232.913C126.634 230.609 117.797 226.641 109.677 220.939C103.594 216.707 95.6638 215.538 90.8666 219.692L90.6773 219.843C85.919 223.883 87.2019 233.402 94.7567 239.9C111.366 254.155 131.726 262.567 152.972 264.849C155.29 264.985 157.627 265.08 160 265.08C162.38 265.08 164.723 264.985 167.046 264.849C188.288 262.564 208.646 254.155 225.219 239.9C232.81 233.402 234.096 223.883 229.298 219.843Z" fill="#21214D"/>
</svg>
