<svg width="30" height="31" viewBox="0 0 30 31" fill="none" xmlns="http://www.w3.org/2000/svg">
<circle cx="14.9997" cy="15.0651" r="14.9997" fill="white"/>
<path d="M10.8187 24.7666L10.833 24.7743C11.2867 24.9728 11.9355 24.7688 12.3909 24.3923C13.0011 23.8826 13.6937 23.4788 14.4294 23.1808C15.0265 22.9119 15.6933 22.6995 16.4075 22.5636C17.1247 22.4269 17.823 22.3795 18.4807 22.4121C19.2711 22.4194 20.0605 22.5409 20.8118 22.7887C21.3737 22.9719 22.052 22.9228 22.401 22.5717L22.4149 22.5587C22.7621 22.2156 22.5349 21.6065 21.8211 21.2971C20.252 20.6188 18.4428 20.387 16.6368 20.5745C16.4412 20.6022 16.2445 20.6332 16.046 20.671C15.8469 20.7089 15.6521 20.7524 15.4593 20.7985C13.7112 21.288 12.1142 22.1684 10.9074 23.3751C10.3541 23.9259 10.3663 24.5757 10.8187 24.7666Z" fill="#21214D"/>
<path d="M10.019 11.4415C10.019 11.9206 9.63056 12.3091 9.15134 12.3091C8.67213 12.3091 8.28369 11.9206 8.28369 11.4415C8.28369 10.9624 8.67213 10.5738 9.15134 10.5738C9.63056 10.5738 10.019 10.9624 10.019 11.4415Z" fill="white"/>
<path d="M20.7959 11.4415C20.7959 11.9206 20.4074 12.3091 19.9282 12.3091C19.449 12.3091 19.0605 11.9206 19.0605 11.4415C19.0605 10.9624 19.449 10.5738 19.9282 10.5738C20.4074 10.5738 20.7959 10.9624 20.7959 11.4415Z" fill="white"/>
</svg>
