<svg width="30" height="31" viewBox="0 0 30 31" fill="none" xmlns="http://www.w3.org/2000/svg">
<circle cx="14.9997" cy="15.0651" r="14.9997" fill="white"/>
<path d="M21.4967 20.6101L21.4824 20.596C21.0326 20.2066 20.2892 20.3161 19.7192 20.7129C18.9543 21.2511 18.1221 21.6228 17.2652 21.8388C16.5639 22.0514 15.7991 22.1683 14.9987 22.1683C14.195 22.1683 13.4301 22.0514 12.7255 21.8354C11.8719 21.6194 11.0434 21.2474 10.2822 20.7129C9.71195 20.3161 8.96847 20.2066 8.51873 20.596L8.50098 20.6101C8.0549 20.9889 8.17516 21.8813 8.88342 22.4905C10.4406 23.8269 12.3493 24.6155 14.3411 24.8294C14.5584 24.8422 14.7775 24.8511 15 24.8511C15.2231 24.8511 15.4427 24.8422 15.6606 24.8294C17.652 24.6152 19.5606 23.8269 21.1143 22.4905C21.8259 21.8813 21.9465 20.9889 21.4967 20.6101Z" fill="#21214D"/>
</svg>
