<svg width="30" height="31" viewBox="0 0 30 31" fill="none" xmlns="http://www.w3.org/2000/svg">
<circle cx="14.9997" cy="15.0651" r="14.9997" fill="white"/>
<path opacity="0.3" d="M8.65416 6.82853C9.64808 6.11871 10.4422 5.67784 11.0218 6.04306C11.6012 6.40828 11.6122 7.65993 10.7591 8.11436C9.90581 8.56879 7.47425 10.0023 4.08008 9.10828C3.55964 9.00758 4.25016 7.77836 5.67138 7.80341C7.09286 7.82871 8.2999 7.07505 8.65416 6.82853Z" fill="#21214D"/>
<path opacity="0.3" d="M21.3621 6.82853C20.3682 6.11871 19.5741 5.67784 18.9947 6.04306C18.415 6.40828 18.4041 7.65993 19.2571 8.11436C20.1104 8.56879 22.542 10.0023 25.9362 9.10828C26.4566 9.00758 25.7661 7.77836 24.3449 7.80341C22.9234 7.82871 21.7163 7.07505 21.3621 6.82853Z" fill="#21214D"/>
<path d="M21.7839 23.4375C21.3057 24.2556 19.5318 24.337 19.0007 23.5969C17.8638 22.1911 15.9553 22.453 15.0062 22.453C14.0608 22.453 12.152 22.1911 11.0154 23.5969C10.4843 24.337 8.71039 24.2556 8.23221 23.4375C7.91004 22.8779 7.21952 22.0035 8.37752 20.2611L8.38456 20.2504C8.57213 20.0204 8.767 19.801 8.96891 19.592C10.6296 17.8604 12.726 16.8263 15.0062 16.8263C17.2867 16.8263 19.3865 17.8604 21.0474 19.592C21.2491 19.801 21.444 20.0204 21.6315 20.2504L21.6386 20.2611C22.7966 22.0035 22.106 22.8779 21.7839 23.4375Z" fill="#21214D"/>
<path d="M9.32281 20.9407C9.73368 21.5889 11.0049 21.2347 11.536 20.9407C12.892 20.1121 14.397 20.2079 15.0379 20.2079C15.6789 20.2079 17.1239 20.1121 18.4799 20.9407C19.011 21.2347 20.2825 21.5889 20.6931 20.9407C20.8029 20.7667 20.9146 20.5522 20.985 20.3054C21.0392 20.116 21.1493 19.6963 20.9988 19.5416C20.8112 19.3486 20.6185 19.1644 20.4202 18.9896C20.2219 18.8146 20.0187 18.6492 19.8106 18.4934C18.3922 17.4322 16.7521 16.826 15.0061 16.826C13.2604 16.826 11.6224 17.432 10.2051 18.4934C9.99716 18.6489 9.79368 18.8146 9.59568 18.9893C9.39742 19.1644 9.20464 19.3486 9.01682 19.5416C8.86655 19.6963 8.97664 20.116 9.03064 20.3054C9.10134 20.5522 9.21299 20.7667 9.32281 20.9407Z" fill="white"/>
<path d="M9.32281 20.9407C9.73368 21.5889 11.0049 21.2347 11.536 20.9407C12.892 20.1121 14.397 20.2079 15.0379 20.2079C15.6789 20.2079 17.1239 20.1121 18.4799 20.9407C19.011 21.2347 20.2825 21.5889 20.6931 20.9407C20.8029 20.7667 20.9146 20.5522 20.985 20.3054C21.0392 20.116 21.1493 19.6963 20.9988 19.5416C20.8112 19.3486 20.6185 19.1644 20.4202 18.9896C20.2219 18.8146 20.0187 18.6492 19.8106 18.4934C18.3922 17.4322 16.7521 16.826 15.0061 16.826C13.2604 16.826 11.6224 17.432 10.2051 18.4934C9.99716 18.6489 9.79368 18.8146 9.59568 18.9893C9.39742 19.1644 9.20464 19.3486 9.01682 19.5416C8.86655 19.6963 8.97664 20.116 9.03064 20.3054C9.10134 20.5522 9.21299 20.7667 9.32281 20.9407Z" fill="white"/>
<path d="M9.32276 20.9404C9.71592 21.5623 10.9034 21.2612 11.4673 20.9761C11.4592 20.9068 11.4497 20.8357 11.4416 20.7615C10.8663 21.0468 9.65471 21.3852 9.24061 20.8036C9.268 20.8519 9.29537 20.8969 9.32276 20.9404Z" fill="white"/>
<path d="M9.24061 20.8036C9.65471 21.3852 10.8663 21.0468 11.4416 20.7615C11.4319 20.6874 11.4239 20.6116 11.4158 20.5327C10.8212 20.8195 9.61767 21.145 9.1617 20.6503C9.18752 20.7035 9.21321 20.7537 9.24061 20.8036Z" fill="white"/>
<path d="M9.1617 20.6503C9.61767 21.145 10.8212 20.8195 11.4158 20.5327C11.4077 20.4537 11.4012 20.3732 11.3949 20.2894C10.7794 20.5778 9.58868 20.8906 9.09081 20.4846C9.11168 20.5426 9.13592 20.5972 9.1617 20.6503Z" fill="white"/>
<path d="M9.09081 20.4846C9.58868 20.8906 10.7794 20.5778 11.3949 20.2894C11.3884 20.2057 11.3838 20.1204 11.3804 20.0334C10.7552 20.3218 9.54829 20.6712 9.02948 20.3055C9.04722 20.3667 9.06824 20.4265 9.09081 20.4846Z" fill="white"/>
<path d="M11.4673 20.9761C11.4916 20.9648 11.5142 20.9531 11.5352 20.9403C11.5302 20.8694 11.5255 20.7954 11.519 20.7197C11.4966 20.7327 11.4657 20.7487 11.4416 20.7615C11.4497 20.8357 11.4592 20.9068 11.4673 20.9761Z" fill="white"/>
<path d="M11.4416 20.7615C11.4658 20.7488 11.4963 20.7326 11.5188 20.7196C11.5141 20.6439 11.5092 20.5666 11.5061 20.486C11.4755 20.5006 11.4464 20.5165 11.4158 20.5327C11.4239 20.6116 11.4319 20.6874 11.4416 20.7615Z" fill="white"/>
<path d="M11.4158 20.5327C11.4464 20.5165 11.4755 20.5006 11.5061 20.486C11.5011 20.4055 11.498 20.3219 11.4964 20.2365C11.4609 20.2542 11.4304 20.2701 11.3949 20.2894C11.4015 20.3732 11.4077 20.4537 11.4158 20.5327Z" fill="white"/>
<path d="M11.3949 20.2894C11.4304 20.2701 11.4609 20.2542 11.4964 20.2365C11.4933 20.1527 11.4934 20.0639 11.4934 19.9753C11.4547 19.9946 11.4174 20.0141 11.3804 20.0334C11.3835 20.1204 11.3884 20.2057 11.3949 20.2894Z" fill="white"/>
<path d="M11.5352 20.9403C12.8902 20.1138 14.3918 20.2073 15.0346 20.2073C15.0346 20.1445 15.0346 20.0783 15.0346 20.0107C14.3676 20.0107 12.8644 19.9206 11.519 20.7197C11.5255 20.7954 11.5302 20.8694 11.5352 20.9403Z" fill="white"/>
<path d="M11.519 20.7197C12.8644 19.9206 14.3676 20.0107 15.0346 20.0107C15.0346 19.943 15.0319 19.8738 15.0319 19.8013C14.3133 19.8013 12.831 19.7449 11.5049 20.4861C11.5081 20.5666 11.513 20.644 11.5177 20.7197L11.519 20.7197Z" fill="white"/>
<path d="M11.5058 20.4861C12.8319 19.745 14.3142 19.8014 15.0328 19.8014C15.0328 19.7289 15.0328 19.653 15.0328 19.5757C14.261 19.5757 12.8013 19.5566 11.4961 20.2365C11.4988 20.3219 11.5009 20.4056 11.5058 20.4861Z" fill="white"/>
<path d="M11.4964 20.2365C12.8015 19.5566 14.2612 19.5756 15.033 19.5756C15.033 19.4982 15.033 19.4195 15.0304 19.3389C14.2361 19.3389 12.7892 19.3227 11.4921 19.9753C11.4921 20.0639 11.4922 20.1526 11.4953 20.2364L11.4964 20.2365Z" fill="white"/>
<path d="M15.0346 20.2073C15.0372 20.2073 15.0372 20.2073 15.0378 20.2073C15.0378 20.1445 15.0378 20.0783 15.0378 20.0107C15.0351 20.0107 15.0346 20.0107 15.0346 20.0107C15.0346 20.0783 15.0346 20.1445 15.0346 20.2073Z" fill="white"/>
<path d="M15.0346 20.0107C15.0346 20.0107 15.0372 20.0107 15.0378 20.0107C15.0378 19.943 15.0378 19.8737 15.0378 19.8012C15.0351 19.8012 15.0346 19.8014 15.0328 19.8014C15.0328 19.8739 15.0355 19.943 15.0355 20.0107L15.0346 20.0107Z" fill="white"/>
<path d="M15.0328 19.8014C15.0354 19.8014 15.0359 19.8012 15.0378 19.8012C15.0378 19.7288 15.0378 19.6529 15.0378 19.5756C15.0351 19.5756 15.0346 19.5757 15.0328 19.5757C15.0328 19.653 15.0328 19.7289 15.0328 19.8014Z" fill="white"/>
<path d="M15.033 19.5756C15.0356 19.5756 15.0361 19.5755 15.0379 19.5755C15.0379 19.4982 15.0379 19.4194 15.0379 19.3389C15.0353 19.3389 15.0348 19.3389 15.0315 19.3389C15.0341 19.4194 15.034 19.4982 15.034 19.5755L15.033 19.5756Z" fill="white"/>
<path d="M15.0378 20.2073C15.679 20.2073 17.1227 20.1122 18.4794 20.9404C18.494 20.8743 18.5083 20.8068 18.5228 20.7343C17.1726 19.9254 15.7064 20.0107 15.0378 20.0107C15.0378 20.0783 15.0378 20.1445 15.0378 20.2073Z" fill="white"/>
<path d="M15.0378 20.0107C15.7064 20.0107 17.1726 19.9254 18.5228 20.7343C18.5374 20.6634 18.5518 20.5908 18.5647 20.515C17.2258 19.7449 15.766 19.8012 15.0378 19.8012C15.0378 19.8737 15.0378 19.943 15.0378 20.0107Z" fill="white"/>
<path d="M15.0378 19.8012C15.766 19.8012 17.2258 19.7449 18.5647 20.515C18.5793 20.4393 18.5921 20.3605 18.6034 20.2815C17.2758 19.5516 15.8256 19.5772 15.0378 19.5756C15.0378 19.6529 15.0378 19.7288 15.0378 19.8012Z" fill="white"/>
<path d="M15.0378 19.5756C15.8256 19.5782 17.2758 19.5515 18.6034 20.2815C18.6147 20.2009 18.6258 20.1187 18.634 20.0333C17.3128 19.3228 15.8532 19.3405 15.0379 19.3389C15.0379 19.4194 15.0378 19.4983 15.0378 19.5756Z" fill="white"/>
<path d="M18.4794 20.9404C19.0111 21.2352 20.2824 21.588 20.6933 20.9403C20.7207 20.8968 20.7481 20.8519 20.7739 20.8035C20.3469 21.4061 19.069 21.0275 18.5228 20.7343C18.5083 20.8068 18.494 20.8743 18.4794 20.9404Z" fill="white"/>
<path d="M18.5228 20.7343C19.069 21.0275 20.3469 21.4061 20.7739 20.8035C20.8013 20.7536 20.8285 20.7035 20.8527 20.6503C20.3886 21.1579 19.1431 20.8067 18.5647 20.515C18.5518 20.5908 18.5374 20.6634 18.5228 20.7343Z" fill="white"/>
<path d="M18.5648 20.5152C19.1433 20.8069 20.3886 21.1579 20.8527 20.6503C20.8785 20.5972 20.9027 20.5426 20.9253 20.4846C20.4242 20.8939 19.2141 20.5699 18.6034 20.2815C18.5922 20.3605 18.5793 20.4395 18.5648 20.5152Z" fill="white"/>
<path d="M18.6034 20.2815C19.2141 20.5699 20.4242 20.8939 20.9253 20.4846C20.9462 20.4266 20.9672 20.3667 20.985 20.3054C20.4662 20.6712 19.2592 20.3234 18.634 20.0333C18.6258 20.1187 18.6147 20.2009 18.6034 20.2815Z" fill="white"/>
<path d="M9.02969 20.3055C9.53562 20.6616 10.6974 20.3395 11.3338 20.0543C11.3096 19.7723 11.2532 19.2583 11.3531 19.0085C10.6683 19.2921 9.60814 19.6628 9.01682 19.542C8.86698 19.6966 8.97663 20.1154 9.02969 20.3055Z" fill="white"/>
<path d="M11.3336 20.0542C11.3498 20.0477 11.3659 20.0415 11.3804 20.0334C11.3626 19.7482 11.311 19.231 11.4158 18.9797C11.3949 18.9893 11.3738 18.9987 11.3529 19.0084C11.2529 19.2582 11.3094 19.7722 11.3336 20.0542Z" fill="white"/>
<path d="M11.3804 20.0334C12.7032 19.3228 14.2081 19.3389 15.0282 19.3389C15.0256 19.0714 15.0257 18.5735 15.0252 18.3415C14.0697 18.3415 12.6888 18.3913 11.4159 18.9794C11.3112 19.2308 11.3626 19.7482 11.3804 20.0334Z" fill="white"/>
<path d="M15.0282 19.3389C15.0308 19.3389 15.0309 19.3389 15.0315 19.3389C15.0341 19.0714 15.0364 18.5735 15.0364 18.3415C15.0332 18.3415 15.0283 18.3415 15.0252 18.3415C15.0278 18.5735 15.0277 19.0714 15.0282 19.3389Z" fill="white"/>
<path d="M15.0315 19.3389C15.0346 19.3389 15.0364 19.3389 15.0379 19.3389C15.0406 19.0714 15.0404 18.5735 15.0378 18.3415C15.0378 18.3415 15.0377 18.3415 15.0351 18.3415C15.0351 18.5735 15.0319 19.0714 15.0301 19.3389H15.0315Z" fill="white"/>
<path d="M15.0379 19.3389C15.8532 19.3415 17.3128 19.3227 18.634 20.0333C18.6727 19.7578 18.7452 19.2519 18.6614 19.0102C17.3772 18.3964 16.0029 18.3431 15.0378 18.3415C15.0404 18.5735 15.0406 19.0714 15.0379 19.3389Z" fill="white"/>
<path d="M18.634 20.0333C19.2592 20.3234 20.4662 20.6712 20.985 20.3054C21.0382 20.1153 21.1493 19.6966 20.9978 19.5419C20.408 19.6627 19.3462 19.2922 18.6614 19.0102C18.7452 19.2519 18.6727 19.7578 18.634 20.0333Z" fill="white"/>
<path d="M9.01648 19.542C9.6078 19.6628 10.6681 19.292 11.3529 19.0084C11.456 18.7281 11.5606 18.4542 11.6701 18.19C10.9838 18.472 10.3151 18.8022 9.59491 18.9892C9.39672 19.1648 9.2034 19.3486 9.01648 19.542Z" fill="white"/>
<path d="M11.3531 19.0085C11.5835 18.8989 11.8188 18.8072 12.054 18.7299C12.1136 18.4688 12.1781 18.2159 12.2425 17.9743C12.0492 18.0387 11.859 18.1127 11.6705 18.19C11.5609 18.4543 11.4562 18.7282 11.3531 19.0085Z" fill="white"/>
<path d="M12.054 18.7299C13.1335 18.377 14.2276 18.3415 15.0252 18.3415C15.0252 18.0708 15.0225 17.8081 15.0225 17.5551C14.0831 17.5525 13.1341 17.6696 12.2414 17.9742C12.177 18.2159 12.1125 18.4688 12.0529 18.7298L12.054 18.7299Z" fill="white"/>
<path d="M15.0248 18.3415C15.028 18.3415 15.0329 18.3415 15.036 18.3415C15.0334 18.0708 15.0311 17.808 15.0295 17.5551C15.0269 17.5551 15.0246 17.5551 15.023 17.5551C15.023 17.808 15.0256 18.0708 15.0256 18.3415H15.0248Z" fill="white"/>
<path d="M15.0364 18.3415C15.039 18.3415 15.0388 18.3415 15.0388 18.3415C15.0388 18.0708 15.0362 17.808 15.0357 17.5551C15.033 17.5551 15.0325 17.5551 15.0307 17.5551C15.0333 17.808 15.0357 18.0708 15.0373 18.3415H15.0364Z" fill="white"/>
<path d="M15.0378 18.3415C15.8224 18.3441 16.8796 18.3768 17.9381 18.7216C17.8785 18.4606 17.8189 18.2094 17.7545 17.9678C16.8812 17.6713 15.9531 17.5583 15.0347 17.5551C15.0373 17.808 15.0378 18.0708 15.0378 18.3415Z" fill="white"/>
<path d="M17.9381 18.7216C18.1798 18.8006 18.4213 18.8958 18.6614 19.0102C18.5599 18.7283 18.4538 18.4543 18.3458 18.1917C18.1509 18.1111 17.9543 18.0354 17.7545 17.9678C17.8189 18.2094 17.8785 18.4606 17.9381 18.7216Z" fill="white"/>
<path d="M18.6614 19.0102C19.3462 19.2922 20.408 19.6627 20.9978 19.5419C20.8108 19.3486 20.6176 19.1647 20.4194 18.9891C19.6992 18.8038 19.0306 18.4721 18.3458 18.1917C18.4538 18.4543 18.5599 18.7283 18.6614 19.0102Z" fill="white"/>
<path d="M9.59523 18.9892C10.5153 18.7507 11.3483 18.2788 12.2425 17.9743C12.2634 17.9114 12.2844 17.85 12.3053 17.7887C11.424 18.09 10.6328 18.5751 9.74502 18.8602C9.69509 18.9021 9.64518 18.9456 9.59523 18.9892Z" fill="white"/>
<path d="M9.74502 18.8602C10.6328 18.5751 11.424 18.09 12.3053 17.7887C12.3262 17.7275 12.3472 17.668 12.3681 17.6084C11.5158 17.9016 10.7118 18.348 9.89647 18.7347C9.84493 18.7749 9.79498 18.8167 9.74502 18.8602Z" fill="white"/>
<path d="M9.89647 18.7347C10.7118 18.348 11.5158 17.9016 12.3681 17.6084C12.389 17.5472 12.4099 17.4891 12.4324 17.4311C11.6075 17.7179 10.7938 18.1239 10.0495 18.6121C9.99788 18.6524 9.94643 18.6928 9.89647 18.7347Z" fill="white"/>
<path d="M10.0495 18.6121C10.7938 18.1239 11.6075 17.7179 12.4324 17.4311C12.4533 17.3715 12.4743 17.3134 12.4968 17.257C11.6864 17.5406 10.9178 17.9595 10.204 18.4928C10.1525 18.5315 10.101 18.5718 10.0495 18.6121Z" fill="white"/>
<path d="M12.2422 17.9742C13.1364 17.6697 14.0886 17.5535 15.0295 17.5551C15.0269 17.4922 15.0247 17.4297 15.0231 17.3684C14.0934 17.3658 13.183 17.4875 12.3049 17.7888C12.284 17.85 12.2631 17.9114 12.2422 17.9742Z" fill="white"/>
<path d="M12.3053 17.7887C13.1835 17.4874 14.0937 17.3667 15.0234 17.3683C15.0208 17.3055 15.0203 17.2441 15.0169 17.1829C14.113 17.1829 13.2156 17.3151 12.3681 17.6084C12.3472 17.668 12.3262 17.7275 12.3053 17.7887Z" fill="white"/>
<path d="M12.3681 17.6084C13.2156 17.3151 14.113 17.1829 15.0169 17.1829C15.0143 17.1232 15.0139 17.0621 15.0121 17.0025C14.1324 17.0025 13.2461 17.1459 12.4324 17.4311C12.4099 17.4891 12.389 17.5472 12.3681 17.6084Z" fill="white"/>
<path d="M12.4324 17.4311C13.2461 17.1459 14.1324 17.0025 15.0121 17.0025C15.0095 16.9429 15.0071 16.8848 15.0055 16.8252C14.1371 16.8252 13.2976 16.975 12.4968 17.257C12.4743 17.3134 12.4533 17.3715 12.4324 17.4311Z" fill="white"/>
<path d="M15.0297 17.5551C15.0297 17.4923 15.0297 17.4296 15.0297 17.3684C15.0271 17.3684 15.0249 17.3683 15.0234 17.3683C15.026 17.4296 15.0282 17.4923 15.0297 17.5551Z" fill="white"/>
<path d="M15.0234 17.3683C15.026 17.3683 15.0282 17.3684 15.0297 17.3684C15.0271 17.3056 15.0272 17.2441 15.0272 17.1829C15.0241 17.1829 15.0207 17.1829 15.016 17.1829C15.0191 17.2441 15.0209 17.3055 15.0225 17.3683H15.0234Z" fill="white"/>
<path d="M15.0169 17.1829C15.0218 17.1829 15.0248 17.1829 15.0279 17.1829C15.0279 17.1232 15.0279 17.0621 15.0279 17.0025C15.0214 17.0025 15.0183 17.0025 15.0118 17.0025C15.0144 17.0621 15.015 17.1232 15.0169 17.1829Z" fill="white"/>
<path d="M15.0121 17.0025C15.0186 17.0025 15.0214 17.0025 15.0279 17.0025C15.0279 16.9429 15.0281 16.8848 15.0281 16.8252C15.02 16.8252 15.0134 16.8252 15.0055 16.8252C15.0081 16.8848 15.0105 16.9429 15.0121 17.0025Z" fill="white"/>
<path d="M15.0297 17.5551C15.9514 17.5583 16.8796 17.6713 17.7545 17.9678C17.7352 17.9049 17.714 17.8436 17.6931 17.7824C16.8311 17.4907 15.9401 17.37 15.0297 17.3684C15.0297 17.4296 15.0297 17.4923 15.0297 17.5551Z" fill="white"/>
<path d="M15.0297 17.3684C15.9401 17.371 16.8311 17.4907 17.6931 17.7824C17.6722 17.7228 17.6514 17.6616 17.6304 17.6019C16.7974 17.3168 15.916 17.1861 15.0282 17.1829C15.0282 17.2441 15.0283 17.3055 15.0309 17.3683L15.0297 17.3684Z" fill="white"/>
<path d="M15.0282 17.1829C15.916 17.1861 16.7974 17.3168 17.6304 17.6019C17.6095 17.5423 17.5884 17.4842 17.5675 17.4246C16.7635 17.1459 15.8935 17.0057 15.0282 17.0025C15.0282 17.0621 15.0282 17.1232 15.0282 17.1829Z" fill="white"/>
<path d="M15.0282 17.0025C15.8935 17.0057 16.7635 17.1459 17.5675 17.4246C17.545 17.3666 17.5241 17.3086 17.5015 17.2522C16.712 16.9767 15.882 16.8284 15.0281 16.8252C15.0281 16.8848 15.0282 16.9429 15.0282 17.0025Z" fill="white"/>
<path d="M17.7545 17.9678C18.6551 18.2723 19.4946 18.7506 20.4194 18.9891C20.3695 18.9456 20.3195 18.9022 20.2695 18.8603C19.3769 18.5751 18.5809 18.0853 17.6931 17.7824C17.714 17.8436 17.7352 17.9049 17.7545 17.9678Z" fill="white"/>
<path d="M17.6931 17.7824C18.5809 18.0853 19.3769 18.5751 20.2695 18.8603C20.2196 18.8184 20.1696 18.775 20.118 18.7347C19.2963 18.3464 18.4892 17.8968 17.6304 17.6019C17.6514 17.6616 17.6722 17.7228 17.6931 17.7824Z" fill="white"/>
<path d="M17.6304 17.6019C18.4892 17.8968 19.2963 18.3464 20.118 18.7347C20.0681 18.6928 20.0167 18.6525 19.9651 18.6122C19.2159 18.1224 18.3957 17.7131 17.5675 17.4246C17.5884 17.4842 17.6095 17.5423 17.6304 17.6019Z" fill="white"/>
<path d="M17.5675 17.4246C18.3957 17.7131 19.2159 18.1224 19.9651 18.6122C19.9136 18.5719 19.8618 18.5315 19.8102 18.4929C19.0932 17.9563 18.3184 17.5358 17.5015 17.2522C17.5241 17.3086 17.545 17.3666 17.5675 17.4246Z" fill="white"/>
</svg>
