<svg width="320" height="321" viewBox="0 0 320 321" fill="none" xmlns="http://www.w3.org/2000/svg">
<circle cx="159.997" cy="160.692" r="159.997" fill="#FF9B99"/>
<path opacity="0.3" d="M92.3132 72.8374C102.915 65.2659 111.385 60.5633 117.568 64.459C123.748 68.3546 123.865 81.7055 114.766 86.5528C105.664 91.4001 79.7275 106.691 43.5229 97.1546C37.9716 96.0805 45.3372 82.9689 60.4968 83.236C75.6593 83.5059 88.5344 75.4669 92.3132 72.8374Z" fill="#21214D"/>
<path opacity="0.3" d="M227.86 72.8374C217.258 65.2659 208.788 60.5633 202.608 64.459C196.425 68.3546 196.308 81.7055 205.407 86.5528C214.509 91.4001 240.446 106.691 276.65 97.1546C282.202 96.0805 274.836 82.9689 259.676 83.236C244.514 83.5059 231.639 75.4669 227.86 72.8374Z" fill="#21214D"/>
<path d="M232.362 249.998C227.261 258.725 208.339 259.593 202.674 251.698C190.547 236.703 170.19 239.497 160.067 239.497C149.982 239.497 129.622 236.703 117.498 251.698C111.833 259.593 92.9111 258.725 87.8106 249.998C84.3741 244.03 77.0085 234.702 89.3605 216.117L89.4357 216.003C91.4364 213.549 93.515 211.209 95.6687 208.98C113.383 190.509 135.744 179.479 160.067 179.479C184.392 179.479 206.789 190.509 224.506 208.98C226.657 211.209 228.736 213.549 230.737 216.003L230.812 216.117C243.164 234.702 235.798 244.03 232.362 249.998Z" fill="#21214D"/>
<path d="M99.4447 223.369C103.827 230.284 117.387 226.505 123.052 223.369C137.516 214.531 153.569 215.553 160.406 215.553C167.243 215.553 182.656 214.531 197.12 223.369C202.785 226.505 216.348 230.284 220.727 223.369C221.899 221.513 223.09 219.226 223.841 216.593C224.42 214.573 225.594 210.096 223.989 208.446C221.988 206.387 219.932 204.422 217.817 202.558C215.702 200.691 213.534 198.927 211.314 197.265C196.185 185.946 178.691 179.479 160.067 179.479C141.445 179.479 123.973 185.943 108.855 197.265C106.638 198.924 104.467 200.691 102.355 202.555C100.24 204.422 98.1841 206.387 96.1807 208.446C94.5779 210.096 95.7522 214.573 96.3282 216.593C97.0822 219.226 98.2732 221.513 99.4447 223.369Z" fill="white"/>
<path d="M99.4447 223.369C103.827 230.284 117.387 226.505 123.052 223.369C137.516 214.531 153.569 215.553 160.406 215.553C167.243 215.553 182.656 214.531 197.12 223.369C202.785 226.505 216.348 230.284 220.727 223.369C221.899 221.513 223.09 219.226 223.841 216.593C224.42 214.573 225.594 210.096 223.989 208.446C221.988 206.387 219.932 204.422 217.817 202.558C215.702 200.691 213.534 198.927 211.314 197.265C196.185 185.946 178.691 179.479 160.067 179.479C141.445 179.479 123.973 185.943 108.855 197.265C106.638 198.924 104.467 200.691 102.355 202.555C100.24 204.422 98.1841 206.387 96.1807 208.446C94.5779 210.096 95.7522 214.573 96.3282 216.593C97.0822 219.226 98.2732 221.513 99.4447 223.369Z" fill="white"/>
<path d="M99.4441 223.366C103.638 230 116.304 226.788 122.319 223.747C122.233 223.007 122.131 222.249 122.045 221.458C115.909 224.501 102.985 228.111 98.5678 221.907C98.8599 222.422 99.1519 222.902 99.4441 223.366Z" fill="white"/>
<path d="M98.5678 221.907C102.985 228.111 115.909 224.501 122.045 221.458C121.942 220.668 121.856 219.859 121.77 219.017C115.428 222.076 102.59 225.548 97.7261 220.272C98.0015 220.839 98.2756 221.374 98.5678 221.907Z" fill="white"/>
<path d="M97.7261 220.272C102.59 225.548 115.428 222.076 121.77 219.017C121.683 218.175 121.614 217.316 121.547 216.422C114.982 219.499 102.281 222.835 96.9699 218.504C97.1925 219.123 97.4511 219.705 97.7261 220.272Z" fill="white"/>
<path d="M96.9699 218.504C102.281 222.835 114.982 219.499 121.547 216.422C121.478 215.529 121.428 214.619 121.392 213.691C114.723 216.768 101.85 220.495 96.3157 216.594C96.5049 217.247 96.7292 217.885 96.9699 218.504Z" fill="white"/>
<path d="M122.319 223.747C122.578 223.627 122.82 223.501 123.043 223.365C122.99 222.609 122.94 221.82 122.871 221.012C122.631 221.151 122.302 221.321 122.045 221.458C122.131 222.249 122.233 223.007 122.319 223.747Z" fill="white"/>
<path d="M122.045 221.458C122.303 221.322 122.628 221.149 122.869 221.011C122.819 220.204 122.766 219.379 122.733 218.52C122.406 218.675 122.096 218.845 121.77 219.017C121.856 219.859 121.942 220.668 122.045 221.458Z" fill="white"/>
<path d="M121.77 219.017C122.096 218.845 122.406 218.675 122.733 218.52C122.68 217.66 122.646 216.769 122.63 215.858C122.251 216.047 121.925 216.216 121.547 216.422C121.617 217.316 121.683 218.175 121.77 219.017Z" fill="white"/>
<path d="M121.547 216.422C121.925 216.216 122.251 216.047 122.63 215.858C122.596 214.964 122.598 214.017 122.598 213.072C122.185 213.278 121.787 213.485 121.392 213.691C121.425 214.619 121.478 215.529 121.547 216.422Z" fill="white"/>
<path d="M123.043 223.365C137.497 214.549 153.514 215.547 160.371 215.547C160.371 214.876 160.371 214.171 160.371 213.449C153.256 213.449 137.222 212.488 122.871 221.012C122.94 221.82 122.99 222.609 123.043 223.365Z" fill="white"/>
<path d="M122.871 221.012C137.222 212.488 153.256 213.449 160.371 213.449C160.371 212.727 160.342 211.989 160.342 211.216C152.676 211.216 136.865 210.614 122.721 218.52C122.754 219.379 122.806 220.204 122.856 221.012L122.871 221.012Z" fill="white"/>
<path d="M122.73 218.521C136.875 210.615 152.686 211.217 160.351 211.217C160.351 210.443 160.351 209.634 160.351 208.809C152.119 208.809 136.548 208.606 122.627 215.858C122.655 216.769 122.677 217.662 122.73 218.521Z" fill="white"/>
<path d="M122.63 215.858C136.551 208.605 152.121 208.808 160.353 208.808C160.353 207.983 160.354 207.143 160.326 206.284C151.853 206.284 136.419 206.11 122.584 213.072C122.584 214.017 122.585 214.963 122.618 215.857L122.63 215.858Z" fill="white"/>
<path d="M160.371 215.547C160.399 215.547 160.398 215.547 160.404 215.547C160.404 214.876 160.404 214.171 160.404 213.449C160.376 213.449 160.371 213.449 160.371 213.449C160.371 214.171 160.371 214.876 160.371 215.547Z" fill="white"/>
<path d="M160.371 213.449C160.371 213.449 160.398 213.449 160.404 213.449C160.404 212.727 160.404 211.989 160.404 211.215C160.376 211.215 160.371 211.217 160.351 211.217C160.351 211.99 160.38 212.727 160.38 213.449L160.371 213.449Z" fill="white"/>
<path d="M160.351 211.217C160.379 211.217 160.385 211.215 160.404 211.215C160.404 210.442 160.404 209.633 160.404 208.808C160.376 208.808 160.371 208.809 160.351 208.809C160.351 209.634 160.351 210.443 160.351 211.217Z" fill="white"/>
<path d="M160.353 208.808C160.381 208.808 160.387 208.808 160.406 208.808C160.406 207.983 160.406 207.142 160.406 206.283C160.378 206.283 160.373 206.283 160.337 206.283C160.365 207.142 160.364 207.983 160.364 208.808L160.353 208.808Z" fill="white"/>
<path d="M160.404 215.547C167.244 215.547 182.643 214.532 197.115 223.366C197.27 222.661 197.423 221.941 197.578 221.167C183.176 212.54 167.536 213.449 160.404 213.449C160.404 214.171 160.404 214.876 160.404 215.547Z" fill="white"/>
<path d="M160.404 213.449C167.536 213.449 183.176 212.54 197.578 221.167C197.734 220.411 197.888 219.637 198.025 218.829C183.743 210.614 168.172 211.215 160.404 211.215C160.404 211.989 160.404 212.727 160.404 213.449Z" fill="white"/>
<path d="M160.404 211.215C168.172 211.215 183.743 210.614 198.025 218.829C198.181 218.021 198.318 217.18 198.438 216.338C184.276 208.553 168.808 208.826 160.404 208.808C160.404 209.633 160.404 210.442 160.404 211.215Z" fill="white"/>
<path d="M160.404 208.808C168.808 208.836 184.276 208.552 198.438 216.338C198.558 215.479 198.677 214.602 198.764 213.691C184.671 206.112 169.102 206.3 160.406 206.283C160.406 207.142 160.404 207.983 160.404 208.808Z" fill="white"/>
<path d="M197.115 223.366C202.786 226.511 216.347 230.274 220.729 223.365C221.022 222.902 221.314 222.422 221.589 221.906C217.035 228.334 203.404 224.295 197.578 221.167C197.423 221.941 197.27 222.661 197.115 223.366Z" fill="white"/>
<path d="M197.578 221.167C203.404 224.295 217.035 228.334 221.589 221.906C221.882 221.374 222.172 220.839 222.43 220.272C217.48 225.686 204.195 221.94 198.025 218.829C197.888 219.637 197.734 220.411 197.578 221.167Z" fill="white"/>
<path d="M198.026 218.831C204.196 221.942 217.48 225.686 222.43 220.272C222.705 219.705 222.964 219.123 223.204 218.505C217.859 222.87 204.952 219.414 198.438 216.338C198.318 217.18 198.18 218.023 198.026 218.831Z" fill="white"/>
<path d="M198.438 216.338C204.952 219.414 217.859 222.87 223.204 218.505C223.427 217.886 223.652 217.246 223.841 216.593C218.307 220.495 205.432 216.785 198.764 213.691C198.677 214.602 198.558 215.479 198.438 216.338Z" fill="white"/>
<path d="M96.318 216.594C101.715 220.392 114.107 216.956 120.895 213.914C120.637 210.907 120.035 205.423 121.101 202.759C113.796 205.784 102.488 209.739 96.1808 208.45C94.5824 210.099 95.752 214.566 96.318 216.594Z" fill="white"/>
<path d="M120.893 213.914C121.066 213.844 121.237 213.778 121.392 213.691C121.203 210.65 120.652 205.133 121.77 202.452C121.547 202.555 121.322 202.655 121.098 202.759C120.033 205.423 120.635 210.906 120.893 213.914Z" fill="white"/>
<path d="M121.392 213.691C135.502 206.112 151.554 206.283 160.302 206.283C160.274 203.43 160.275 198.119 160.27 195.645C150.078 195.645 135.348 196.176 121.771 202.449C120.654 205.13 121.203 210.65 121.392 213.691Z" fill="white"/>
<path d="M160.302 206.283C160.33 206.283 160.331 206.283 160.337 206.283C160.365 203.43 160.389 198.119 160.389 195.645C160.356 195.645 160.303 195.645 160.27 195.645C160.297 198.119 160.297 203.43 160.302 206.283Z" fill="white"/>
<path d="M160.337 206.283C160.37 206.283 160.389 206.283 160.406 206.283C160.434 203.43 160.432 198.119 160.404 195.645C160.404 195.645 160.403 195.645 160.376 195.645C160.376 198.119 160.342 203.43 160.323 206.283H160.337Z" fill="white"/>
<path d="M160.406 206.283C169.102 206.311 184.671 206.111 198.764 213.691C199.176 210.752 199.95 205.356 199.056 202.778C185.359 196.23 170.699 195.662 160.404 195.645C160.432 198.119 160.434 203.43 160.406 206.283Z" fill="white"/>
<path d="M198.764 213.691C205.432 216.785 218.307 220.495 223.841 216.593C224.408 214.565 225.594 210.099 223.977 208.449C217.687 209.738 206.361 205.785 199.056 202.778C199.95 205.356 199.176 210.752 198.764 213.691Z" fill="white"/>
<path d="M96.1771 208.45C102.484 209.739 113.794 205.784 121.098 202.759C122.198 199.768 123.314 196.847 124.483 194.028C117.162 197.036 110.029 200.559 102.347 202.553C100.233 204.426 98.1709 206.387 96.1771 208.45Z" fill="white"/>
<path d="M121.101 202.759C123.558 201.591 126.068 200.612 128.577 199.787C129.213 197.003 129.901 194.305 130.588 191.727C128.526 192.415 126.497 193.204 124.486 194.029C123.318 196.848 122.201 199.769 121.101 202.759Z" fill="white"/>
<path d="M128.577 199.787C140.092 196.024 151.762 195.645 160.27 195.645C160.27 192.757 160.241 189.955 160.241 187.256C150.221 187.229 140.098 188.478 130.577 191.727C129.889 194.304 129.202 197.002 128.566 199.786L128.577 199.787Z" fill="white"/>
<path d="M160.266 195.645C160.3 195.645 160.352 195.645 160.386 195.645C160.358 192.757 160.333 189.954 160.316 187.256C160.289 187.256 160.264 187.256 160.247 187.256C160.247 189.954 160.274 192.757 160.274 195.645H160.266Z" fill="white"/>
<path d="M160.389 195.645C160.417 195.645 160.416 195.645 160.416 195.645C160.416 192.757 160.387 189.954 160.382 187.256C160.354 187.256 160.348 187.256 160.329 187.256C160.356 189.954 160.383 192.757 160.399 195.645H160.389Z" fill="white"/>
<path d="M160.404 195.645C168.774 195.672 180.05 196.021 191.342 199.699C190.706 196.915 190.07 194.236 189.382 191.658C180.067 188.496 170.168 187.291 160.371 187.256C160.399 189.954 160.404 192.757 160.404 195.645Z" fill="white"/>
<path d="M191.342 199.699C193.92 200.541 196.495 201.558 199.056 202.778C197.973 199.77 196.841 196.848 195.69 194.047C193.611 193.188 191.514 192.38 189.382 191.658C190.07 194.236 190.706 196.915 191.342 199.699Z" fill="white"/>
<path d="M199.056 202.778C206.361 205.785 217.687 209.738 223.977 208.449C221.984 206.386 219.922 204.425 217.808 202.552C210.126 200.576 202.994 197.037 195.69 194.047C196.841 196.848 197.973 199.77 199.056 202.778Z" fill="white"/>
<path d="M102.35 202.553C112.164 200.009 121.05 194.976 130.588 191.727C130.811 191.057 131.035 190.402 131.258 189.749C121.857 192.962 113.418 198.136 103.948 201.178C103.416 201.625 102.883 202.089 102.35 202.553Z" fill="white"/>
<path d="M103.948 201.178C113.418 198.136 121.857 192.962 131.258 189.749C131.481 189.095 131.704 188.461 131.928 187.825C122.836 190.953 114.26 195.714 105.564 199.838C105.014 200.268 104.481 200.714 103.948 201.178Z" fill="white"/>
<path d="M105.564 199.838C114.26 195.714 122.836 190.953 131.928 187.825C132.15 187.172 132.373 186.552 132.614 185.933C123.814 188.993 115.136 193.324 107.195 198.531C106.645 198.961 106.097 199.391 105.564 199.838Z" fill="white"/>
<path d="M107.195 198.531C115.136 193.324 123.814 188.993 132.614 185.933C132.837 185.298 133.06 184.678 133.301 184.077C124.656 187.101 116.458 191.57 108.844 197.259C108.294 197.671 107.745 198.102 107.195 198.531Z" fill="white"/>
<path d="M130.585 191.727C140.123 188.479 150.28 187.239 160.316 187.256C160.289 186.586 160.264 185.918 160.248 185.265C150.331 185.237 140.62 186.535 131.253 189.749C131.031 190.402 130.808 191.057 130.585 191.727Z" fill="white"/>
<path d="M131.258 189.749C140.625 186.535 150.334 185.247 160.251 185.264C160.223 184.594 160.217 183.939 160.181 183.286C150.539 183.286 140.968 184.697 131.928 187.825C131.704 188.461 131.481 189.095 131.258 189.749Z" fill="white"/>
<path d="M131.928 187.825C140.968 184.697 150.539 183.286 160.181 183.286C160.153 182.65 160.15 181.998 160.13 181.362C150.746 181.362 141.293 182.891 132.614 185.933C132.373 186.552 132.15 187.172 131.928 187.825Z" fill="white"/>
<path d="M132.614 185.933C141.293 182.891 150.746 181.362 160.13 181.362C160.102 180.726 160.077 180.107 160.06 179.471C150.797 179.471 141.843 181.069 133.301 184.077C133.06 184.678 132.837 185.298 132.614 185.933Z" fill="white"/>
<path d="M160.318 187.257C160.318 186.586 160.318 185.918 160.318 185.265C160.291 185.265 160.267 185.264 160.251 185.264C160.278 185.917 160.302 186.586 160.318 187.257Z" fill="white"/>
<path d="M160.251 185.264C160.278 185.264 160.302 185.265 160.318 185.265C160.291 184.595 160.291 183.939 160.291 183.286C160.258 183.286 160.222 183.286 160.172 183.286C160.205 183.939 160.224 184.594 160.241 185.264H160.251Z" fill="white"/>
<path d="M160.181 183.286C160.234 183.286 160.266 183.286 160.299 183.286C160.299 182.65 160.299 181.998 160.299 181.362C160.23 181.362 160.196 181.362 160.127 181.362C160.155 181.998 160.162 182.65 160.181 183.286Z" fill="white"/>
<path d="M160.13 181.362C160.2 181.362 160.23 181.362 160.299 181.362C160.299 180.726 160.301 180.107 160.301 179.471C160.215 179.471 160.144 179.471 160.06 179.471C160.088 180.107 160.114 180.726 160.13 181.362Z" fill="white"/>
<path d="M160.318 187.257C170.149 187.29 180.05 188.496 189.382 191.658C189.176 190.988 188.951 190.334 188.727 189.681C179.533 186.57 170.029 185.282 160.318 185.265C160.318 185.918 160.318 186.586 160.318 187.257Z" fill="white"/>
<path d="M160.318 185.265C170.029 185.293 179.533 186.57 188.727 189.681C188.505 189.045 188.282 188.392 188.059 187.756C179.174 184.714 169.772 183.32 160.302 183.286C160.302 183.939 160.303 184.594 160.331 185.264L160.318 185.265Z" fill="white"/>
<path d="M160.302 183.286C169.772 183.32 179.174 184.714 188.059 187.756C187.836 187.12 187.611 186.501 187.388 185.865C178.812 182.892 169.531 181.397 160.302 181.362C160.302 181.998 160.302 182.65 160.302 183.286Z" fill="white"/>
<path d="M160.302 181.362C169.531 181.397 178.812 182.892 187.388 185.865C187.148 185.246 186.925 184.627 186.684 184.025C178.263 181.086 169.41 179.505 160.301 179.471C160.301 180.107 160.302 180.726 160.302 181.362Z" fill="white"/>
<path d="M189.382 191.658C198.99 194.906 207.943 200.009 217.808 202.552C217.276 202.088 216.743 201.625 216.21 201.179C206.688 198.137 198.197 192.912 188.727 189.681C188.951 190.334 189.176 190.988 189.382 191.658Z" fill="white"/>
<path d="M188.727 189.681C198.197 192.912 206.688 198.137 216.21 201.179C215.677 200.732 215.143 200.269 214.594 199.839C205.828 195.697 197.219 190.901 188.059 187.756C188.282 188.392 188.505 189.045 188.727 189.681Z" fill="white"/>
<path d="M188.059 187.756C197.219 190.901 205.828 195.697 214.594 199.839C214.061 199.392 213.512 198.961 212.962 198.532C204.971 193.307 196.222 188.941 187.388 185.865C187.611 186.501 187.836 187.12 188.059 187.756Z" fill="white"/>
<path d="M187.388 185.865C196.222 188.941 204.971 193.307 212.962 198.532C212.413 198.102 211.86 197.672 211.31 197.259C203.662 191.536 195.397 187.05 186.684 184.025C186.925 184.627 187.148 185.246 187.388 185.865Z" fill="white"/>
</svg>
