<svg width="30" height="31" viewBox="0 0 30 31" fill="none" xmlns="http://www.w3.org/2000/svg">
<circle cx="14.9998" cy="15.0647" r="14.9998" fill="white"/>
<path d="M14.9999 24.8052H17.9598C18.8926 24.8052 19.3306 23.9636 18.6331 23.5115L18.572 23.4719C16.5344 22.1516 13.4657 22.1516 11.428 23.4719L11.3667 23.5115C10.6692 23.9636 11.1074 24.8052 12.0403 24.8052H14.9999Z" fill="#21214D"/>
<path opacity="0.3" d="M8.64664 9.05117C9.6403 8.34133 10.4344 7.90046 11.0141 8.26569C11.5937 8.63091 11.6044 9.88257 10.7514 10.337C9.89832 10.7914 7.46673 12.2249 4.07226 11.3309C3.55182 11.2302 4.24235 10.001 5.66384 10.026C7.08533 10.0514 8.29238 9.29769 8.64664 9.05117Z" fill="#21214D"/>
<path opacity="0.3" d="M21.3537 9.05117C20.36 8.34133 19.5659 7.90046 18.9863 8.26569C18.4066 8.63091 18.3959 9.88257 19.249 10.337C20.102 10.7914 22.5336 12.2249 25.9281 11.3309C26.4485 11.2302 25.758 10.001 24.3365 10.026C22.915 10.0514 21.7079 9.29769 21.3537 9.05117Z" fill="#21214D"/>
</svg>
