<svg width="320" height="320" viewBox="0 0 320 320" fill="none" xmlns="http://www.w3.org/2000/svg">
<circle cx="159.997" cy="159.997" r="159.997" fill="#FFC97C"/>
<path d="M160 272.102C189.923 272.102 210.672 262.834 225.693 251.229C239.808 240.326 248.889 227.349 255.815 217.862L257.173 216.014L257.174 216.013C263.324 207.712 263.486 199.981 261.51 194.154L261.506 194.145L261.503 194.135C261.306 193.514 261.07 192.908 260.806 192.315L260.533 191.727L260.528 191.718C259.178 188.829 257.325 186.531 255.582 185.04C254.709 184.294 253.889 183.771 253.197 183.472C252.531 183.183 252.1 183.153 251.879 183.194C235.845 190.581 216.986 193.745 200.12 195.07C183.214 196.399 168.206 195.887 160 195.887C151.792 195.887 136.784 196.399 119.878 195.07C103.012 193.745 84.1534 190.581 68.1191 183.194C67.8988 183.153 67.469 183.183 66.8027 183.472C66.1119 183.771 65.2907 184.293 64.418 185.039C62.7839 186.436 61.0541 188.545 59.7314 191.183L59.4727 191.718L59.4678 191.727L59.1953 192.316C58.9312 192.91 58.6937 193.516 58.4941 194.138L58.4912 194.146L58.4883 194.154L58.3096 194.706C56.5857 200.279 56.8489 207.489 62.2656 215.236L62.8242 216.013H62.8252C69.9221 225.61 79.2516 239.599 94.3076 251.229C109.329 262.834 130.077 272.101 160 272.102Z" fill="#21214D" stroke="#21214D" stroke-width="2.08696"/>
<path d="M84.541 215.651C104.625 228.51 131.051 236.31 159.995 236.31C179.986 236.31 198.777 232.589 215.098 226.05C225.193 222.008 234.344 216.889 242.254 210.907C244.811 208.973 247.235 206.95 249.519 204.844C251.804 202.74 253.949 200.55 255.947 198.285C256.357 197.819 256.761 197.35 257.159 196.878C257.243 196.78 257.327 196.681 257.411 196.582L257.532 196.433C257.93 195.953 258.322 195.47 258.707 194.985L258.825 194.838L258.889 194.754C259.788 193.611 260.65 192.451 261.474 191.276C259.871 187.851 257.589 185.199 255.52 183.654C254.891 183.181 254.282 182.811 253.72 182.553C253.719 182.554 253.719 182.554 253.718 182.555C253.506 182.462 253.304 182.385 253.11 182.323C252.947 182.27 252.789 182.228 252.638 182.197C252.501 182.168 252.368 182.148 252.239 182.135L252.236 182.141L252.239 182.131C251.975 182.131 251.754 182.132 251.533 182.199L251.532 182.201C222.826 195.475 184.724 195.079 165.481 194.879C163.426 194.858 161.586 194.839 159.996 194.839C158.402 194.839 156.559 194.858 154.502 194.879C145.788 194.97 133.219 195.1 119.406 193.986C102.698 192.636 84.1713 189.464 68.4523 182.199C68.2763 182.15 68.0817 182.129 67.8712 182.135L67.7504 182.135L67.7482 182.131C67.3064 182.175 66.8003 182.306 66.27 182.551L66.2765 182.564L66.2745 182.565L66.2686 182.553C63.8383 183.657 60.6121 186.817 58.5132 191.28C58.9328 191.876 59.3729 192.472 59.8148 193.069L59.8172 193.064L59.8155 193.071C60.2574 193.668 60.6995 194.242 61.1633 194.839C61.301 195.009 61.4391 195.182 61.5777 195.355C61.9055 195.765 62.2369 196.18 62.5784 196.583C62.8175 196.866 63.0571 197.142 63.2958 197.419L63.2974 197.421C63.5434 197.706 63.7893 197.992 64.0356 198.283C66.0463 200.559 68.1925 202.748 70.4683 204.847C72.6483 206.839 74.9286 208.769 77.3452 210.604C77.4776 210.705 77.6103 210.806 77.7434 210.907C78.4613 211.45 79.1894 211.986 79.9275 212.514C81.4245 213.588 82.958 214.63 84.541 215.651Z" fill="white"/>
</svg>
