<svg width="30" height="30" viewBox="0 0 30 30" fill="none" xmlns="http://www.w3.org/2000/svg">
<circle cx="15" cy="15" r="15" fill="white"/>
<path d="M10.0193 10.8047C10.0193 11.2839 9.63081 11.6724 9.15184 11.6724C8.67262 11.6724 8.28418 11.2839 8.28418 10.8047C8.28418 10.3255 8.67262 9.93702 9.15184 9.93702C9.63081 9.93702 10.0193 10.3255 10.0193 10.8047Z" fill="white"/>
<path d="M20.7959 10.8047C20.7959 11.2839 20.4075 11.6724 19.9282 11.6724C19.449 11.6724 19.0605 11.2839 19.0605 10.8047C19.0605 10.3255 19.449 9.93702 19.9282 9.93702C20.4075 9.93702 20.7959 10.3255 20.7959 10.8047Z" fill="white"/>
<path d="M15 25.5103C17.8053 25.5103 19.7509 24.6411 21.1592 23.5532C22.2179 22.7354 22.9746 21.7932 23.5674 20.9937L24.1104 20.2515C24.6868 19.4734 24.7027 18.7488 24.5176 18.2026L24.6064 18.1714L24.5166 18.2026V18.2007C24.5043 18.162 24.4898 18.1239 24.4746 18.0864L24.4258 17.9751L24.4248 17.9741C24.2982 17.7033 24.1244 17.4879 23.9609 17.3481C23.8793 17.2783 23.803 17.2287 23.7383 17.2007C23.6748 17.1732 23.6337 17.1711 23.6133 17.1753C22.1102 17.8675 20.3426 18.1643 18.7617 18.2886C17.1768 18.4131 15.7694 18.3647 15 18.3647C14.2305 18.3648 12.8238 18.4131 11.2393 18.2886C9.65823 18.1643 7.88987 17.8676 6.38672 17.1753C6.3662 17.1713 6.32563 17.1734 6.2627 17.2007C6.19795 17.2287 6.12083 17.2782 6.03906 17.3481C5.91657 17.453 5.78854 17.6004 5.67871 17.7817L5.57617 17.9741L5.5752 17.9751L5.52539 18.0864L5.48438 18.2007L5.4834 18.2026L5.42383 18.4155C5.31873 18.8939 5.37592 19.4797 5.78809 20.106L5.88965 20.2515C6.555 21.1512 7.43027 22.4628 8.8418 23.5532C10.25 24.641 12.195 25.5102 15 25.5103Z" fill="#21214D" stroke="#21214D" stroke-width="0.195656"/>
<path d="M7.926 20.2177C9.80892 21.4233 12.2864 22.1546 15 22.1546C16.8742 22.1546 18.6358 21.8057 20.166 21.1927C21.1124 20.8137 21.9704 20.3338 22.7119 19.773C22.9517 19.5917 23.1789 19.402 23.3931 19.2046C23.6072 19.0073 23.8084 18.802 23.9957 18.5897C24.0341 18.546 24.072 18.5021 24.1093 18.4578C24.1172 18.4486 24.1251 18.4393 24.1329 18.43L24.1442 18.416C24.1816 18.3711 24.2183 18.3258 24.2544 18.2803L24.2655 18.2665L24.2715 18.2586C24.3557 18.1515 24.4366 18.0428 24.5138 17.9325C24.3635 17.6115 24.1496 17.3629 23.9556 17.218C23.8967 17.1737 23.8396 17.1389 23.7868 17.1147C23.7868 17.1148 23.7868 17.1149 23.7867 17.115C23.7668 17.1063 23.7478 17.099 23.7296 17.0932C23.7144 17.0882 23.6996 17.0843 23.6854 17.0814C23.6726 17.0787 23.6601 17.0768 23.6481 17.0756L23.6478 17.0761L23.6481 17.0752C23.6233 17.0752 23.6026 17.0753 23.5818 17.0816L23.5817 17.0818C20.8905 18.3263 17.3183 18.2891 15.5143 18.2704C15.3216 18.2684 15.1491 18.2666 15 18.2666C14.8507 18.2666 14.6778 18.2684 14.4849 18.2704C13.668 18.2789 12.4897 18.2911 11.1947 18.1867C9.62827 18.0601 7.89134 17.7627 6.41765 17.0816C6.40115 17.077 6.38291 17.075 6.36317 17.0756L6.35185 17.0756L6.35165 17.0752C6.31022 17.0794 6.26278 17.0916 6.21306 17.1146L6.21366 17.1158L6.21348 17.1159L6.21293 17.1147C5.98508 17.2183 5.68262 17.5145 5.48584 17.9329C5.52518 17.9888 5.56644 18.0447 5.60787 18.1007L5.60809 18.1002L5.60793 18.1009C5.64936 18.1568 5.69081 18.2107 5.7343 18.2666C5.74721 18.2826 5.76015 18.2987 5.77314 18.315C5.80387 18.3534 5.83495 18.3923 5.86696 18.4301C5.88938 18.4566 5.91184 18.4825 5.93422 18.5085L5.93437 18.5087C5.95743 18.5354 5.98049 18.5622 6.00358 18.5895C6.19209 18.8029 6.39329 19.0081 6.60666 19.2049C6.81104 19.3916 7.02482 19.5726 7.25138 19.7446C7.26379 19.7541 7.27624 19.7635 7.28872 19.773C7.35602 19.8239 7.42428 19.8741 7.49348 19.9237C7.63383 20.0244 7.77759 20.122 7.926 20.2177Z" fill="white"/>
</svg>
